<svg viewBox="0 0 281 115" xmlns="http://www.w3.org/2000/svg" fill-rule="evenodd" clip-rule="evenodd" stroke-linejoin="round" stroke-miterlimit="2"><g fill="#fff"><path d="M0 114.592V28.364h7.458v9.973h1.65l-2.887 5.429V72.88l2.956 6.733H7.458v34.979H0zm29.404-23.62c-5.144 0-9.791-1.282-13.942-3.847-4.15-2.564-7.444-6.233-9.881-11.008-2.438-4.775-3.668-10.469-3.691-17.084.023-6.698 1.249-12.407 3.678-17.126 2.429-4.719 5.714-8.323 9.856-10.812 4.142-2.489 8.802-3.733 13.98-3.733 5.362 0 10.182 1.275 14.458 3.825 4.276 2.55 7.656 6.2 10.14 10.95 2.483 4.75 3.713 10.415 3.691 16.996.022 4.889-.685 9.294-2.123 13.213-1.437 3.92-3.438 7.267-6.002 10.04a26.224 26.224 0 01-8.997 6.372c-3.434 1.476-7.157 2.214-11.167 2.214zm-.927-6.565c4.164 0 7.881-1.074 11.149-3.224 3.268-2.149 5.836-5.119 7.704-8.911 1.867-3.792 2.79-8.172 2.767-13.139.023-5.1-.887-9.54-2.729-13.322-1.842-3.781-4.397-6.707-7.665-8.778-3.268-2.071-7.01-3.107-11.226-3.107-3.861 0-7.422.966-10.681 2.898-3.26 1.932-5.881 4.775-7.863 8.528-1.982 3.753-2.973 8.347-2.973 13.781 0 4.817.925 9.129 2.775 12.938 1.851 3.809 4.392 6.817 7.623 9.025 3.231 2.207 6.937 3.311 11.119 3.311zm75.223 6.565c-5.975 0-11.281-1.377-15.918-4.13-4.638-2.754-8.283-6.536-10.935-11.347-2.653-4.811-3.979-10.309-3.979-16.496 0-6.202 1.326-11.676 3.979-16.42 2.652-4.743 6.297-8.455 10.935-11.133 4.637-2.678 9.943-4.018 15.918-4.018 5.998 0 11.316 1.34 15.953 4.018 4.637 2.678 8.276 6.39 10.917 11.133 2.641 4.744 3.962 10.218 3.962 16.42 0 6.187-1.332 11.685-3.996 16.496-2.664 4.811-6.315 8.593-10.952 11.347-4.638 2.753-9.932 4.13-15.884 4.13zm0-6.748c4.537 0 8.556-1.064 12.056-3.191s6.238-5.085 8.215-8.874c1.976-3.79 2.964-8.176 2.964-13.16 0-4.966-.988-9.312-2.964-13.037-1.977-3.726-4.715-6.621-8.215-8.687-3.5-2.066-7.519-3.099-12.056-3.099-4.428 0-8.396 1.033-11.905 3.099-3.509 2.066-6.275 4.961-8.297 8.687-2.022 3.725-3.033 8.071-3.033 13.037 0 4.984 1.005 9.37 3.016 13.16 2.01 3.789 4.764 6.747 8.262 8.874 3.497 2.127 7.483 3.191 11.957 3.191zm60.563 6.548c-2.577 0-4.664-.514-6.259-1.542-1.595-1.027-2.764-2.553-3.506-4.577s-1.113-4.511-1.113-7.463V0h7.458v77.325c0 .962.07 1.965.211 3.006.14 1.041.531 1.917 1.173 2.627.641.71 1.744 1.065 3.308 1.065.636 0 1.263-.07 1.882-.209a11.157 11.157 0 001.573-.459v6.715c-.602.234-1.331.409-2.187.526-.857.117-1.703.176-2.54.176z" fill-rule="nonzero"/><path d="M187.919 28.356h7.459v61.681h-7.459zm3.669-11.457c-1.664 0-3.062-.559-4.194-1.677-1.133-1.118-1.699-2.469-1.699-4.051 0-1.583.566-2.933 1.699-4.051 1.132-1.118 2.53-1.678 4.194-1.678 1.628 0 3.018.56 4.168 1.678 1.15 1.118 1.725 2.468 1.725 4.051 0 1.582-.575 2.933-1.725 4.051-1.15 1.118-2.54 1.677-4.168 1.677z"/><path d="M241.779 90.842c-5.64 0-9.862-1.625-12.664-4.876-2.803-3.25-4.204-7.571-4.204-12.962V7.782h7.458V72.77c0 3.564.823 6.349 2.47 8.357 1.646 2.007 3.986 3.011 7.02 3.011.914 0 1.825-.12 2.734-.361.909-.24 1.731-.536 2.466-.886L250 89.257a25.02 25.02 0 01-3.79 1.143c-1.337.295-2.814.442-4.431.442zm-27.294-55.893v-6.6h34.231v6.6h-34.231z" fill-rule="nonzero"/></g><path d="M274.991 90.772c-1.663 0-3.061-.559-4.194-1.678-1.133-1.118-1.699-2.468-1.699-4.051 0-1.582.566-2.933 1.699-4.051 1.133-1.118 2.531-1.677 4.194-1.677 1.629 0 3.018.559 4.168 1.677 1.151 1.118 1.726 2.469 1.726 4.051 0 1.583-.575 2.933-1.726 4.051-1.15 1.119-2.539 1.678-4.168 1.678z" fill="#fff" fill-opacity=".1"/></svg>