<?xml version="1.0" encoding="UTF-8" standalone="no"?><!DOCTYPE svg PUBLIC "-//W3C//DTD SVG 1.1//EN" "http://www.w3.org/Graphics/SVG/1.1/DTD/svg11.dtd"><svg width="100%" height="100%" viewBox="0 0 281 115" version="1.1" xmlns="http://www.w3.org/2000/svg" xmlns:xlink="http://www.w3.org/1999/xlink" xml:space="preserve" xmlns:serif="http://www.serif.com/" style="fill-rule:evenodd;clip-rule:evenodd;stroke-linejoin:round;stroke-miterlimit:2;"><g><path d="M0,114.592l0,-86.228l7.458,-0l-0,9.973l1.65,-0l-2.887,5.429l-0,29.114l2.956,6.733l-1.719,-0l-0,34.979l-7.458,-0Zm29.404,-23.62c-5.144,-0 -9.791,-1.282 -13.942,-3.847c-4.15,-2.564 -7.444,-6.233 -9.881,-11.008c-2.438,-4.775 -3.668,-10.469 -3.691,-17.084c0.023,-6.698 1.249,-12.407 3.678,-17.126c2.429,-4.719 5.714,-8.323 9.856,-10.812c4.142,-2.489 8.802,-3.733 13.98,-3.733c5.362,-0 10.182,1.275 14.458,3.825c4.276,2.55 7.656,6.2 10.14,10.95c2.483,4.75 3.713,10.415 3.691,16.996c0.022,4.889 -0.685,9.294 -2.123,13.213c-1.437,3.92 -3.438,7.267 -6.002,10.04c-2.563,2.772 -5.562,4.897 -8.997,6.372c-3.434,1.476 -7.157,2.214 -11.167,2.214Zm-0.927,-6.565c4.164,0 7.881,-1.074 11.149,-3.224c3.268,-2.149 5.836,-5.119 7.704,-8.911c1.867,-3.792 2.79,-8.172 2.767,-13.139c0.023,-5.1 -0.887,-9.54 -2.729,-13.322c-1.842,-3.781 -4.397,-6.707 -7.665,-8.778c-3.268,-2.071 -7.01,-3.107 -11.226,-3.107c-3.861,0 -7.422,0.966 -10.681,2.898c-3.26,1.932 -5.881,4.775 -7.863,8.528c-1.982,3.753 -2.973,8.347 -2.973,13.781c-0,4.817 0.925,9.129 2.775,12.938c1.851,3.809 4.392,6.817 7.623,9.025c3.231,2.207 6.937,3.311 11.119,3.311Z" style="fill:#fff;fill-rule:nonzero;"/><path d="M103.7,90.972c-5.975,-0 -11.281,-1.377 -15.918,-4.13c-4.638,-2.754 -8.283,-6.536 -10.935,-11.347c-2.653,-4.811 -3.979,-10.309 -3.979,-16.496c0,-6.202 1.326,-11.676 3.979,-16.42c2.652,-4.743 6.297,-8.455 10.935,-11.133c4.637,-2.678 9.943,-4.018 15.918,-4.018c5.998,0 11.316,1.34 15.953,4.018c4.637,2.678 8.276,6.39 10.917,11.133c2.641,4.744 3.962,10.218 3.962,16.42c-0,6.187 -1.332,11.685 -3.996,16.496c-2.664,4.811 -6.315,8.593 -10.952,11.347c-4.638,2.753 -9.932,4.13 -15.884,4.13Zm-0,-6.748c4.537,-0 8.556,-1.064 12.056,-3.191c3.5,-2.127 6.238,-5.085 8.215,-8.874c1.976,-3.79 2.964,-8.176 2.964,-13.16c-0,-4.966 -0.988,-9.312 -2.964,-13.037c-1.977,-3.726 -4.715,-6.621 -8.215,-8.687c-3.5,-2.066 -7.519,-3.099 -12.056,-3.099c-4.428,0 -8.396,1.033 -11.905,3.099c-3.509,2.066 -6.275,4.961 -8.297,8.687c-2.022,3.725 -3.033,8.071 -3.033,13.037c-0,4.984 1.005,9.37 3.016,13.16c2.01,3.789 4.764,6.747 8.262,8.874c3.497,2.127 7.483,3.191 11.957,3.191Z" style="fill:#fff;fill-rule:nonzero;"/><path d="M164.263,90.772c-2.577,-0 -4.664,-0.514 -6.259,-1.542c-1.595,-1.027 -2.764,-2.553 -3.506,-4.577c-0.742,-2.024 -1.113,-4.511 -1.113,-7.463l0,-77.19l7.458,-0l0,77.325c0,0.962 0.07,1.965 0.211,3.006c0.14,1.041 0.531,1.917 1.173,2.627c0.641,0.71 1.744,1.065 3.308,1.065c0.636,-0 1.263,-0.07 1.882,-0.209c0.619,-0.139 1.143,-0.292 1.573,-0.459l-0,6.715c-0.602,0.234 -1.331,0.409 -2.187,0.526c-0.857,0.117 -1.703,0.176 -2.54,0.176Z" style="fill:#fff;fill-rule:nonzero;"/><rect x="187.919" y="28.356" width="7.459" height="61.681" style="fill:#fff;"/><path d="M191.588,16.899c-1.664,0 -3.062,-0.559 -4.194,-1.677c-1.133,-1.118 -1.699,-2.469 -1.699,-4.051c-0,-1.583 0.566,-2.933 1.699,-4.051c1.132,-1.118 2.53,-1.678 4.194,-1.678c1.628,0 3.018,0.56 4.168,1.678c1.15,1.118 1.725,2.468 1.725,4.051c0,1.582 -0.575,2.933 -1.725,4.051c-1.15,1.118 -2.54,1.677 -4.168,1.677Z" style="fill:#fff;"/><path d="M241.779,90.842c-5.64,-0 -9.862,-1.625 -12.664,-4.876c-2.803,-3.25 -4.204,-7.571 -4.204,-12.962l-0,-65.222l7.458,0l0,64.988c0,3.564 0.823,6.349 2.47,8.357c1.646,2.007 3.986,3.011 7.02,3.011c0.914,-0 1.825,-0.12 2.734,-0.361c0.909,-0.24 1.731,-0.536 2.466,-0.886l2.941,6.366c-1.19,0.468 -2.453,0.849 -3.79,1.143c-1.337,0.295 -2.814,0.442 -4.431,0.442Zm-27.294,-55.893l-0,-6.6l34.231,0l0,6.6l-34.231,0Z" style="fill:#fff;fill-rule:nonzero;"/></g><path d="M274.991,90.772c-1.663,-0 -3.061,-0.559 -4.194,-1.678c-1.133,-1.118 -1.699,-2.468 -1.699,-4.051c-0,-1.582 0.566,-2.933 1.699,-4.051c1.133,-1.118 2.531,-1.677 4.194,-1.677c1.629,0 3.018,0.559 4.168,1.677c1.151,1.118 1.726,2.469 1.726,4.051c-0,1.583 -0.575,2.933 -1.726,4.051c-1.15,1.119 -2.539,1.678 -4.168,1.678Z" style="fill:#fff;fill-opacity:0.1;"/></svg>